{
    "asset": {
        "copyright": "2020 (c) Adobe Inc.",
        "generator": "Adobe Dimension - 3de52ae4ccc0c25be48106335282fae5a6a58dee",
        "version": "2.0"
    },
    "accessors": [
        {
            "bufferView": 0,
            "componentType": 5126,
            "count": 804,
            "type": "VEC3",
            "max": [
                0.022620046511292459,
                0.07800015807151795,
                0.0
            ],
            "min": [
                0.011180022731423378,
                0.0,
                -0.009999999776482582
            ]
        },
        {
            "bufferView": 1,
            "componentType": 5126,
            "count": 804,
            "type": "VEC3"
        },
        {
            "bufferView": 2,
            "componentType": 5126,
            "count": 804,
            "type": "VEC2"
        },
        {
            "bufferView": 3,
            "componentType": 5125,
            "count": 804,
            "type": "SCALAR",
            "max": [
                803.0
            ],
            "min": [
                0.0
            ]
        }
    ],
    "bufferViews": [
        {
            "buffer": 0,
            "byteOffset": 0,
            "byteLength": 9648,
            "target": 34962
        },
        {
            "buffer": 0,
            "byteOffset": 9648,
            "byteLength": 9648,
            "target": 34962
        },
        {
            "buffer": 0,
            "byteOffset": 19296,
            "byteLength": 6432,
            "target": 34962
        },
        {
            "buffer": 0,
            "byteOffset": 25728,
            "byteLength": 3216,
            "target": 34963
        }
    ],
    "buffers": [
        {
            "byteLength": 28944,
            "uri": "Letter_I_binary.bin"
        }
    ],
    "cameras": [
        {
            "perspective": {
                "znear": 0.000010000000656873454,
                "yfov": 0.6024156808853149,
                "zfar": 2.0,
                "aspectRatio": 1.3333333730697632
            },
            "type": "perspective",
            "name": "render_camera"
        }
    ],
    "images": [
        {
            "name": "rainbow_anodized_metal_baseColor",
            "uri": "Letter_I_images/rainbow_anodized_metal_baseColor.jpg",
            "mimeType": "image/jpeg"
        },
        {
            "name": "image",
            "uri": "Letter_I_images/image.png",
            "mimeType": "image/png"
        }
    ],
    "materials": [
        {
            "pbrMetallicRoughness": {
                "baseColorTexture": {
                    "index": 0
                },
                "metallicRoughnessTexture": {
                    "index": 1
                }
            },
            "name": "Rainbow Anodized Metal",
            "doubleSided": true
        }
    ],
    "meshes": [
        {
            "name": "TextMesh#",
            "primitives": [
                {
                    "attributes": {
                        "POSITION": 0,
                        "NORMAL": 1,
                        "TEXCOORD_0": 2
                    },
                    "indices": 3,
                    "material": 0
                }
            ]
        }
    ],
    "nodes": [
        {
            "translation": [
                0.4940999448299408,
                0.29999998211860659,
                0.5049999952316284
            ],
            "rotation": [
                -0.12059047073125839,
                0.379409521818161,
                0.04995020851492882,
                0.9159756302833557
            ],
            "scale": [
                1.0,
                1.0,
                0.9999999403953552
            ],
            "camera": 0,
            "name": "render_camera_n3d"
        },
        {
            "translation": [
                -0.01690003275871277,
                0.0,
                0.00500000175088644
            ],
            "rotation": [
                0.0,
                4.470348358154297e-8,
                0.0,
                1.0
            ],
            "mesh": 0,
            "name": "Text"
        }
    ],
    "samplers": [
        {},
        {}
    ],
    "scenes": [
        {
            "nodes": [
                0,
                1
            ],
            "name": "scene"
        }
    ],
    "textures": [
        {
            "name": "rainbow_anodized_metal_material::baseColor::image",
            "sampler": 0,
            "source": 0
        },
        {
            "name": "image",
            "sampler": 1,
            "source": 1
        }
    ],
    "scene": 0
}